# xmcd
#
# Track frame offsets:
#	150
#	20187
#	44449
#	64054
#	77892
#	95067
#	116817
#	127354
#	150867
#	164537
#	186004
#
# Disc length: 2763 seconds
#
# Revision: 0
# Processed by: cddbd v1.4PL0 Copyright (c) Steve Scherf et al.
# Submitted via: dBpowerAMP V4.0
#
DISCID=9b0ac90b
DTITLE=susan tedeschi - Just Won't Burn
DYEAR=1900
DGENRE=
TTITLE0=rock me right
TTITLE1=you need to be with me
TTITLE2=little by little
TTITLE3=it hurts so bad
TTITLE4=i found someone new
TTITLE5=looking for someone
TTITLE6=can't leave you alone
TTITLE7=just won't burn
TTITLE8=mama, he treats your daughter mean
TTITLE9=angel from montgomery
TTITLE10=friar's point
EXTD=
EXTT0=
EXTT1=
EXTT2=
EXTT3=
EXTT4=
EXTT5=
EXTT6=
EXTT7=
EXTT8=
EXTT9=
EXTT10=
PLAYORDER=
